<svg aria-hidden="true" style="position: absolute; width: 0; height: 0; overflow: hidden;" version="1.1" xmlns="http://www.w3.org/2000/svg" xmlns:xlink="http://www.w3.org/1999/xlink">
<defs>
<symbol id="clock" viewBox="0 0 32 32">
<path fill="#8bacd9" style="fill: var(--color1, #8bacd9)" d="M15.633 3.778c-6.931 0-12.55 5.619-12.55 12.55s5.619 12.55 12.55 12.55v0c6.931 0 12.55-5.619 12.55-12.55s-5.619-12.55-12.55-12.55v0zM20.653 17.583h-5.020c-0.693 0-1.256-0.562-1.256-1.256v0-5.020c0-0.693 0.562-1.256 1.256-1.256s1.256 0.562 1.256 1.256v0 3.765h3.765c0.693 0 1.256 0.562 1.256 1.256s-0.562 1.256-1.256 1.256v0z"></path>
</symbol>
<symbol id="ethereum" viewBox="0 0 20 32">
<path fill="#00fff8" style="fill: var(--color2, #00fff8)" d="M19.556 18.162l-9.778 13.838-9.778-13.838 9.778 5.801 9.778-5.799zM9.778 0l9.771 16.3-9.771 5.797-9.778-5.796 9.778-16.302z"></path>
</symbol>
</defs>
</svg>
